Coordinates
nRows=9
nColumns=38

# SIMM Motion File Header:
name Coordinates
datacolumns 38
datarows 9
otherdata 1
range 1.54600000000000000000 1.55400000000000000000

Units are S.I. units (second, meters, Newtons, ...)
Angles are in degrees.

endheader
time	pelvis_tilt	pelvis_list	pelvis_rotation	pelvis_tx	pelvis_ty	pelvis_tz	hip_flexion_r	hip_adduction_r	hip_rotation_r	knee_angle_r	ankle_angle_r	subtalar_angle_r	mtp_angle_r	hip_flexion_l	hip_adduction_l	hip_rotation_l	knee_angle_l	ankle_angle_l	subtalar_angle_l	mtp_angle_l	lumbar_extension	lumbar_bending	lumbar_rotation	arm_flex_r	arm_add_r	arm_rot_r	elbow_flex_r	pro_sup_r	wrist_flex_r	wrist_dev_r	arm_flex_l	arm_add_l	arm_rot_l	elbow_flex_l	pro_sup_l	wrist_flex_l	wrist_dev_l
      1.54600000000000000000	    -12.90265339988148900000	     -0.75291492287045303000	     -2.01041735921472590000	      0.99278560127460302000	      1.03849884506890140000	     -0.35152719249388131000	     33.56455487924191100000	      4.21541496254110810000	      2.90416760908671230000	     -6.61832795031485690000	      1.96598263089694840000	      0.00000000000000000000	      0.00000000000000000000	     -3.76092307597793290000	      5.69536426962348590000	      3.06972366580546610000	    -57.76170528846346700000	    -19.05520388482997500000	      0.00000000000000000000	      0.00000000000000000000	      2.95736096526750100000	      5.10933400236255330000	     -9.13291945927060130000	    -49.71210563837092200000	    -20.95257423589370300000	    -19.25514916804849000000	    114.20478694096539000000	    107.80864617928052000000	      0.00000000000000000000	      0.00000000000000000000	    -30.19984313810102000000	    -14.19844891167179100000	     -5.55022633471059910000	    132.71245122270622000000	     97.79097106360147500000	      0.00000000000000000000	      0.00000000000000000000
      1.54699999999999990000	    -12.88299960407816700000	     -0.78313982679120908000	     -2.00176871704005730000	      0.99266738010043654000	      1.03793241796188070000	     -0.35147117067125616000	     33.48627630357479700000	      4.25451805412890490000	      2.76874389845930000000	     -6.61062455223451730000	      1.94687494921167660000	      0.00000000000000000028	     -0.00000000000000000210	     -3.53144341276652970000	      5.59396455173757620000	      2.90785293715830440000	    -58.46125808307676400000	    -18.88547790944923600000	      0.00000000000000000084	     -0.00000000000000000025	      2.91733227622324740000	      5.15003131263008560000	     -9.08501665429049330000	    -49.60774730299164000000	    -20.97526305535621900000	    -19.22942980578180900000	    114.21183427645181000000	    107.81596920475683000000	      0.00000000000000000018	      0.00000000000000000050	    -30.22786336692388400000	    -14.21998986485912500000	     -5.50208707202712780000	    132.53473327557509000000	     97.91491194755236900000	     -0.00000000000000000019	      0.00000000000000000010
      1.54800000000000000000	    -12.86458962615093200000	     -0.81249421291384782000	     -1.99210901547791620000	      0.99254594507285820000	      1.03735515985297420000	     -0.35141567983031885000	     33.41262620726355700000	      4.29187323596133470000	      2.62648372622865890000	     -6.61724676635394630000	      1.92671244594384180000	      0.00000000000000000271	     -0.00000000000000000319	     -3.29934398622238150000	      5.49181278522918960000	      2.74925695545048620000	    -59.15958725017970500000	    -18.71079139172410800000	      0.00000000000000000194	      0.00000000000000000261	      2.87883155840139170000	      5.18942708326944670000	     -9.03693597422312140000	    -49.50136661515016800000	    -20.99873579230906600000	    -19.20231109968053600000	    114.21679833753828000000	    107.82235942510084000000	      0.00000000000000000020	      0.00000000000000000137	    -30.25612920005720200000	    -14.24189174622710400000	     -5.45441551005105920000	    132.35517114853056000000	     98.04154563092656400000	     -0.00000000000000000109	      0.00000000000000000053
      1.54899999999999990000	    -12.84746307812528000000	     -0.84103963583496655000	     -1.98153530105002610000	      0.99242125421213867000	      1.03676717026761670000	     -0.35136071693084919000	     33.34365211966179000000	      4.32753109308255460000	      2.47713138941258750000	     -6.63811023447186430000	      1.90182046205465370000	      0.00000000000000000764	     -0.00000000000000000438	     -3.06460209503401200000	      5.38893908060683910000	      2.59396945533020510000	    -59.85657582230789600000	    -18.53099902350316000000	      0.00000000000000000249	      0.00000000000000000794	      2.84189276378735030000	      5.22762785659182770000	     -8.98856247202833640000	    -49.39298857133979900000	    -21.02300148245406300000	    -19.17385140704547600000	    114.21966430331450000000	    107.82781088149891000000	      0.00000000000000000039	      0.00000000000000000244	    -30.28457995695834300000	    -14.26411642315671500000	     -5.40713962316087570000	    132.17370565660818000000	     98.17071661989524500000	     -0.00000000000000000225	      0.00000000000000000076
      1.55000000000000000000	    -12.83158795536910400000	     -0.86878084435055747000	     -1.97004543287981320000	      0.99229340312008085000	      1.03616851885102920000	     -0.35130639643438816000	     33.27927255909480700000	      4.36146956129472140000	      2.32095177788331690000	     -6.67309206304884040000	      1.87272132069285750000	      0.00000000000000001212	     -0.00000000000000000817	     -2.82729136450253990000	      5.28545026675485020000	      2.44215301612347480000	    -60.55207538675698900000	    -18.34594777463132300000	      0.00000000000000000322	      0.00000000000000001338	      2.80649240542762790000	      5.26466169784439590000	     -8.93987219803251950000	    -49.28265588506501900000	    -21.04804808664957200000	    -19.14410654051820200000	    114.22043705642413000000	    107.83232473477398000000	      0.00000000000000000027	      0.00000000000000000330	    -30.31317211074767900000	    -14.28665439146187100000	     -5.36019652125488120000	    131.99031085539519000000	     98.30221426803997500000	     -0.00000000000000000320	      0.00000000000000000199
      1.55099999999999990000	    -12.81687658648415800000	     -0.89574443608454279000	     -1.95765749264892900000	      0.99216248213538361000	      1.03555937972208030000	     -0.35125281228291877000	     33.21935179457888400000	      4.39369194917105780000	      2.15815981832788050000	     -6.72207086336948660000	      1.83941197583381650000	      0.00000000000000001490	     -0.00000000000000001075	     -2.58754810543085600000	      5.18143048516006650000	      2.29393020537565830000	    -61.24592931828504300000	    -18.15550846422747400000	      0.00000000000000000393	      0.00000000000000001538	      2.77253558331966190000	      5.30058316125435970000	     -8.89081806304771230000	    -49.17039756724361200000	    -21.07386707027589500000	    -19.11313521941273700000	    114.21912133012179000000	    107.83589919824506000000	      0.00000000000000000001	      0.00000000000000000420	    -30.34184184891485700000	    -14.30949273753533300000	     -5.31351958365100250000	    131.80495316596037000000	     98.43582522665958800000	     -0.00000000000000000383	      0.00000000000000000343
      1.55200000000000000000	    -12.80302911662942100000	     -0.92198062024248661000	     -1.94439930419625710000	      0.99202866306729898000	      1.03494024099152250000	     -0.35120004138278177000	     33.16350318143591400000	      4.42422456216258020000	      1.98900004880697430000	     -6.78488443868255780000	      1.80201470632602030000	      0.00000000000000001870	     -0.00000000000000001157	     -2.34576270891263360000	      5.07694201511651140000	      2.14939624865845550000	    -61.93792905419446300000	    -17.95958325641663600000	      0.00000000000000000584	      0.00000000000000001715	      2.73967669666294130000	      5.33546679795140830000	     -8.84133416738866100000	    -49.05620323221425100000	    -21.10044887900188500000	    -19.08099462746896400000	    114.21572767063724000000	    107.83852838135924000000	     -0.00000000000000000015	      0.00000000000000000555	    -30.37047591708877200000	    -14.33262760617636500000	     -5.26704153100924980000	    131.61759961789528000000	     98.57132533092432400000	     -0.00000000000000000431	      0.00000000000000000619
      1.55299999999999990000	    -12.78990944217539100000	     -0.94752912767508324000	     -1.93030372343348880000	      0.99189202799090048000	      1.03431134949291590000	     -0.35114815961653617000	     33.11154920134210000000	      4.45308977605566710000	      1.81372823686075170000	     -6.86143470635259420000	      1.76066348637032430000	      0.00000000000000002312	     -0.00000000000000001169	     -2.10212224418371020000	      4.97205314021336610000	      2.00862734309943700000	    -62.62792307719752900000	    -17.75808727137051000000	      0.00000000000000001008	      0.00000000000000002029	      2.70775646108505800000	      5.36938269598195820000	     -8.79135636851410670000	    -48.94009383315702200000	    -21.12778562965419800000	    -19.04774531511558800000	    114.21026339577654000000	    107.84020649762209000000	     -0.00000000000000000037	      0.00000000000000000687	    -30.39899153691371200000	    -14.35604700259384000000	     -5.22069619080506440000	    131.42821225229895000000	     98.70849633927193200000	     -0.00000000000000000506	      0.00000000000000001084
      1.55400000000000000000	    -12.77749677904509100000	     -0.97241555643932376000	     -1.91544026767170750000	      0.99175259095673418000	      1.03367277898296070000	     -0.35109719624285163000	     33.06346714051657200000	      4.48031897590447240000	      1.63264502231860380000	     -6.95168385932416920000	      1.71553229603959250000	      0.00000000000000002535	     -0.00000000000000001038	     -1.85667467945864530000	      4.86684406359170390000	      1.87165190766312390000	    -63.31579236792359900000	    -17.55095422484826200000	      0.00000000000000001609	      0.00000000000000002110	      2.67674264273480090000	      5.40239252562461660000	     -8.74078904423369710000	    -48.82211339527629700000	    -21.15587047470745900000	    -19.01345025860010600000	    114.20273449695706000000	    107.84092690284231000000	     -0.00000000000000000084	      0.00000000000000000684	    -30.42732576357959600000	    -14.37973382422885200000	     -5.17441892869207630000	    131.23674978974580000000	     98.84712414222958900000	     -0.00000000000000000644	      0.00000000000000001630
